<?xml version="1.0" encoding="UTF-8" standalone="no"?><!DOCTYPE svg PUBLIC "-//W3C//DTD SVG 1.1//EN" "http://www.w3.org/Graphics/SVG/1.1/DTD/svg11.dtd"><!-- Generated by graphviz version 2.40.1 (20161225.0304)
 --><!-- Title: %0 Pages: 1 --><svg xmlns="http://www.w3.org/2000/svg" xmlns:xlink="http://www.w3.org/1999/xlink" width="1224pt" height="620pt" viewBox="0.00 0.00 1224.34 620.00">
<g id="graph0" class="graph" transform="scale(1 1) rotate(0) translate(4 616)">
<title>%0</title>
<polygon fill="#ffffff" stroke="transparent" points="-4,4 -4,-616 1220.3377,-616 1220.3377,4 -4,4"/>
<!-- [root] aws_internet_gateway.igw (expand) -->
<g id="node1" class="node">
<title>[root] aws_internet_gateway.igw (expand)</title>
<polygon fill="none" stroke="#000000" points="436.6453,-252 271.3135,-252 271.3135,-216 436.6453,-216 436.6453,-252"/>
<text text-anchor="middle" x="353.9794" y="-229.8" font-family="Times,serif" font-size="14.00" fill="#000000">aws_internet_gateway.igw</text>
</g>
<!-- [root] aws_vpc.myVpc (expand) -->
<g id="node9" class="node">
<title>[root] aws_vpc.myVpc (expand)</title>
<polygon fill="none" stroke="#000000" points="552.672,-180 443.2868,-180 443.2868,-144 552.672,-144 552.672,-180"/>
<text text-anchor="middle" x="497.9794" y="-157.8" font-family="Times,serif" font-size="14.00" fill="#000000">aws_vpc.myVpc</text>
</g>
<!-- [root] aws_internet_gateway.igw (expand)&#45;&gt;[root] aws_vpc.myVpc (expand) -->
<g id="edge1" class="edge">
<title>[root] aws_internet_gateway.igw (expand)-&gt;[root] aws_vpc.myVpc (expand)</title>
<path fill="none" stroke="#000000" d="M390.3167,-215.8314C409.319,-206.3302 432.7552,-194.6121 452.9046,-184.5374"/>
<polygon fill="#000000" stroke="#000000" points="454.5244,-187.6407 461.9034,-180.038 451.3939,-181.3797 454.5244,-187.6407"/>
</g>
<!-- [root] aws_nat_gateway.nat&#45;gw (expand) -->
<g id="node2" class="node">
<title>[root] aws_nat_gateway.nat-gw (expand)</title>
<polygon fill="none" stroke="#000000" points="578.8638,-324 421.0949,-324 421.0949,-288 578.8638,-288 578.8638,-324"/>
<text text-anchor="middle" x="499.9794" y="-301.8" font-family="Times,serif" font-size="14.00" fill="#000000">aws_nat_gateway.nat-gw</text>
</g>
<!-- [root] aws_nat_gateway.nat&#45;gw (expand)&#45;&gt;[root] aws_internet_gateway.igw (expand) -->
<g id="edge2" class="edge">
<title>[root] aws_nat_gateway.nat-gw (expand)-&gt;[root] aws_internet_gateway.igw (expand)</title>
<path fill="none" stroke="#000000" d="M463.1374,-287.8314C443.8711,-278.3302 420.1094,-266.6121 399.6802,-256.5374"/>
<polygon fill="#000000" stroke="#000000" points="401.0732,-253.3219 390.5564,-252.038 397.9771,-259.6 401.0732,-253.3219"/>
</g>
<!-- [root] aws_subnet.private_subnet (expand) -->
<g id="node7" class="node">
<title>[root] aws_subnet.private_subnet (expand)</title>
<polygon fill="none" stroke="#000000" points="666.716,-252 499.2428,-252 499.2428,-216 666.716,-216 666.716,-252"/>
<text text-anchor="middle" x="582.9794" y="-229.8" font-family="Times,serif" font-size="14.00" fill="#000000">aws_subnet.private_subnet</text>
</g>
<!-- [root] aws_nat_gateway.nat&#45;gw (expand)&#45;&gt;[root] aws_subnet.private_subnet (expand) -->
<g id="edge3" class="edge">
<title>[root] aws_nat_gateway.nat-gw (expand)-&gt;[root] aws_subnet.private_subnet (expand)</title>
<path fill="none" stroke="#000000" d="M520.9238,-287.8314C531.0485,-279.0485 543.357,-268.3712 554.3342,-258.8489"/>
<polygon fill="#000000" stroke="#000000" points="556.7813,-261.3595 562.0417,-252.1628 552.1943,-256.0718 556.7813,-261.3595"/>
</g>
<!-- [root] aws_route_table.route_table_private (expand) -->
<g id="node3" class="node">
<title>[root] aws_route_table.route_table_private (expand)</title>
<polygon fill="none" stroke="#000000" points="788.0686,-396 567.8902,-396 567.8902,-360 788.0686,-360 788.0686,-396"/>
<text text-anchor="middle" x="677.9794" y="-373.8" font-family="Times,serif" font-size="14.00" fill="#000000">aws_route_table.route_table_private</text>
</g>
<!-- [root] aws_route_table.route_table_private (expand)&#45;&gt;[root] aws_nat_gateway.nat&#45;gw (expand) -->
<g id="edge4" class="edge">
<title>[root] aws_route_table.route_table_private (expand)-&gt;[root] aws_nat_gateway.nat-gw (expand)</title>
<path fill="none" stroke="#000000" d="M633.0625,-359.8314C609.0444,-350.1162 579.296,-338.0831 554.0202,-327.8592"/>
<polygon fill="#000000" stroke="#000000" points="555.1561,-324.5432 544.5733,-324.038 552.5312,-331.0325 555.1561,-324.5432"/>
</g>
<!-- [root] aws_route_table.route_table_public (expand) -->
<g id="node4" class="node">
<title>[root] aws_route_table.route_table_public (expand)</title>
<polygon fill="none" stroke="#000000" points="402.1935,-396 185.7653,-396 185.7653,-360 402.1935,-360 402.1935,-396"/>
<text text-anchor="middle" x="293.9794" y="-373.8" font-family="Times,serif" font-size="14.00" fill="#000000">aws_route_table.route_table_public</text>
</g>
<!-- [root] aws_route_table.route_table_public (expand)&#45;&gt;[root] aws_internet_gateway.igw (expand) -->
<g id="edge5" class="edge">
<title>[root] aws_route_table.route_table_public (expand)-&gt;[root] aws_internet_gateway.igw (expand)</title>
<path fill="none" stroke="#000000" d="M301.5784,-359.7623C311.9025,-334.9846 330.4496,-290.4714 342.4819,-261.5939"/>
<polygon fill="#000000" stroke="#000000" points="345.8266,-262.6666 346.442,-252.0896 339.3651,-259.9742 345.8266,-262.6666"/>
</g>
<!-- [root] aws_route_table_association.private_route (expand) -->
<g id="node5" class="node">
<title>[root] aws_route_table_association.private_route (expand)</title>
<polygon fill="none" stroke="#000000" points="905.563,-468 650.3958,-468 650.3958,-432 905.563,-432 905.563,-468"/>
<text text-anchor="middle" x="777.9794" y="-445.8" font-family="Times,serif" font-size="14.00" fill="#000000">aws_route_table_association.private_route</text>
</g>
<!-- [root] aws_route_table_association.private_route (expand)&#45;&gt;[root] aws_route_table.route_table_private (expand) -->
<g id="edge6" class="edge">
<title>[root] aws_route_table_association.private_route (expand)-&gt;[root] aws_route_table.route_table_private (expand)</title>
<path fill="none" stroke="#000000" d="M752.7452,-431.8314C740.1914,-422.7927 724.8511,-411.7476 711.3402,-402.0198"/>
<polygon fill="#000000" stroke="#000000" points="713.366,-399.1655 703.2055,-396.1628 709.2758,-404.8463 713.366,-399.1655"/>
</g>
<!-- [root] aws_route_table_association.route (expand) -->
<g id="node6" class="node">
<title>[root] aws_route_table_association.route (expand)</title>
<polygon fill="none" stroke="#000000" points="1132.6921,-468 923.2667,-468 923.2667,-432 1132.6921,-432 1132.6921,-468"/>
<text text-anchor="middle" x="1027.9794" y="-445.8" font-family="Times,serif" font-size="14.00" fill="#000000">aws_route_table_association.route</text>
</g>
<!-- [root] aws_route_table_association.route (expand)&#45;&gt;[root] aws_route_table.route_table_public (expand) -->
<g id="edge7" class="edge">
<title>[root] aws_route_table_association.route (expand)-&gt;[root] aws_route_table.route_table_public (expand)</title>
<path fill="none" stroke="#000000" d="M923.3632,-433.0085C920.5409,-432.6553 917.7423,-432.3181 914.9794,-432 695.1507,-406.6887 635.8707,-420.6702 412.3802,-396.1039"/>
<polygon fill="#000000" stroke="#000000" points="412.6287,-392.61 402.3029,-394.9825 411.8544,-399.5671 412.6287,-392.61"/>
</g>
<!-- [root] aws_subnet.public_subnet (expand) -->
<g id="node8" class="node">
<title>[root] aws_subnet.public_subnet (expand)</title>
<polygon fill="none" stroke="#000000" points="1006.841,-324 843.1178,-324 843.1178,-288 1006.841,-288 1006.841,-324"/>
<text text-anchor="middle" x="924.9794" y="-301.8" font-family="Times,serif" font-size="14.00" fill="#000000">aws_subnet.public_subnet</text>
</g>
<!-- [root] aws_route_table_association.route (expand)&#45;&gt;[root] aws_subnet.public_subnet (expand) -->
<g id="edge8" class="edge">
<title>[root] aws_route_table_association.route (expand)-&gt;[root] aws_subnet.public_subnet (expand)</title>
<path fill="none" stroke="#000000" d="M1014.9344,-431.7623C996.9793,-406.66 964.5355,-361.3017 943.9107,-332.4671"/>
<polygon fill="#000000" stroke="#000000" points="946.583,-330.1869 937.9185,-324.0896 940.8895,-334.2594 946.583,-330.1869"/>
</g>
<!-- [root] aws_subnet.private_subnet (expand)&#45;&gt;[root] aws_vpc.myVpc (expand) -->
<g id="edge9" class="edge">
<title>[root] aws_subnet.private_subnet (expand)-&gt;[root] aws_vpc.myVpc (expand)</title>
<path fill="none" stroke="#000000" d="M561.5303,-215.8314C551.1616,-207.0485 538.5565,-196.3712 527.3148,-186.8489"/>
<polygon fill="#000000" stroke="#000000" points="529.3143,-183.9556 519.4216,-180.1628 524.7899,-189.297 529.3143,-183.9556"/>
</g>
<!-- [root] var.az_list -->
<g id="node18" class="node">
<title>[root] var.az_list</title>
<polygon fill="none" stroke="#000000" points="697.9002,-180 630.0585,-180 630.0585,-144 703.9002,-144 703.9002,-174 697.9002,-180"/>
<polyline fill="none" stroke="#000000" points="697.9002,-180 697.9002,-174 "/>
<polyline fill="none" stroke="#000000" points="703.9002,-174 697.9002,-174 "/>
<text text-anchor="middle" x="666.9794" y="-157.8" font-family="Times,serif" font-size="14.00" fill="#000000">var.az_list</text>
</g>
<!-- [root] aws_subnet.private_subnet (expand)&#45;&gt;[root] var.az_list -->
<g id="edge10" class="edge">
<title>[root] aws_subnet.private_subnet (expand)-&gt;[root] var.az_list</title>
<path fill="none" stroke="#000000" d="M604.1761,-215.8314C614.4228,-207.0485 626.8797,-196.3712 637.9891,-186.8489"/>
<polygon fill="#000000" stroke="#000000" points="640.4746,-189.3282 645.7894,-180.1628 635.9191,-184.0134 640.4746,-189.3282"/>
</g>
<!-- [root] aws_subnet.public_subnet (expand)&#45;&gt;[root] aws_vpc.myVpc (expand) -->
<g id="edge11" class="edge">
<title>[root] aws_subnet.public_subnet (expand)-&gt;[root] aws_vpc.myVpc (expand)</title>
<path fill="none" stroke="#000000" d="M877.0394,-287.8287C827.0899,-269.0948 746.4303,-239.4007 675.9794,-216 638.6018,-203.5848 596.4383,-190.7429 562.5325,-180.6986"/>
<polygon fill="#000000" stroke="#000000" points="563.3275,-177.2841 552.7456,-177.8091 561.3452,-183.9975 563.3275,-177.2841"/>
</g>
<!-- [root] aws_subnet.public_subnet (expand)&#45;&gt;[root] var.az_list -->
<g id="edge12" class="edge">
<title>[root] aws_subnet.public_subnet (expand)-&gt;[root] var.az_list</title>
<path fill="none" stroke="#000000" d="M904.4999,-287.8949C881.5167,-268.2539 842.5169,-236.9105 804.9794,-216 775.9546,-199.8316 741.0956,-186.234 713.6747,-176.7279"/>
<polygon fill="#000000" stroke="#000000" points="714.5279,-173.3212 703.9334,-173.4136 712.2731,-179.9482 714.5279,-173.3212"/>
</g>
<!-- [root] provider[&quot;registry.terraform.io/hashicorp/aws&quot;] -->
<g id="node17" class="node">
<title>[root] provider["registry.terraform.io/hashicorp/aws"]</title>
<polygon fill="none" stroke="#000000" points="497.9794,-108 222.9889,-90 497.9794,-72 772.9698,-90 497.9794,-108"/>
<text text-anchor="middle" x="497.9794" y="-85.8" font-family="Times,serif" font-size="14.00" fill="#000000">provider["registry.terraform.io/hashicorp/aws"]</text>
</g>
<!-- [root] aws_vpc.myVpc (expand)&#45;&gt;[root] provider[&quot;registry.terraform.io/hashicorp/aws&quot;] -->
<g id="edge13" class="edge">
<title>[root] aws_vpc.myVpc (expand)-&gt;[root] provider["registry.terraform.io/hashicorp/aws"]</title>
<path fill="none" stroke="#000000" d="M497.9794,-143.8314C497.9794,-136.131 497.9794,-126.9743 497.9794,-118.4166"/>
<polygon fill="#000000" stroke="#000000" points="501.4795,-118.4132 497.9794,-108.4133 494.4795,-118.4133 501.4795,-118.4132"/>
</g>
<!-- [root] output.Internet&#45;gateway -->
<g id="node10" class="node">
<title>[root] output.Internet-gateway</title>
<polygon fill="none" stroke="#000000" points="162.0938,-396 17.8649,-396 17.8649,-360 168.0938,-360 168.0938,-390 162.0938,-396"/>
<polyline fill="none" stroke="#000000" points="162.0938,-396 162.0938,-390 "/>
<polyline fill="none" stroke="#000000" points="168.0938,-390 162.0938,-390 "/>
<text text-anchor="middle" x="92.9794" y="-373.8" font-family="Times,serif" font-size="14.00" fill="#000000">output.Internet-gateway</text>
</g>
<!-- [root] output.Internet&#45;gateway&#45;&gt;[root] aws_internet_gateway.igw (expand) -->
<g id="edge23" class="edge">
<title>[root] output.Internet-gateway-&gt;[root] aws_internet_gateway.igw (expand)</title>
<path fill="none" stroke="#000000" d="M125.7709,-359.9081C173.0427,-333.8272 260.3373,-285.6646 312.1786,-257.0625"/>
<polygon fill="#000000" stroke="#000000" points="314.0517,-260.0265 321.1167,-252.1311 310.6701,-253.8974 314.0517,-260.0265"/>
</g>
<!-- [root] output.Nat&#45;Gateway -->
<g id="node11" class="node">
<title>[root] output.Nat-Gateway</title>
<polygon fill="none" stroke="#000000" points="543.8806,-396 420.0782,-396 420.0782,-360 549.8806,-360 549.8806,-390 543.8806,-396"/>
<polyline fill="none" stroke="#000000" points="543.8806,-396 543.8806,-390 "/>
<polyline fill="none" stroke="#000000" points="549.8806,-390 543.8806,-390 "/>
<text text-anchor="middle" x="484.9794" y="-373.8" font-family="Times,serif" font-size="14.00" fill="#000000">output.Nat-Gateway</text>
</g>
<!-- [root] output.Nat&#45;Gateway&#45;&gt;[root] aws_nat_gateway.nat&#45;gw (expand) -->
<g id="edge24" class="edge">
<title>[root] output.Nat-Gateway-&gt;[root] aws_nat_gateway.nat-gw (expand)</title>
<path fill="none" stroke="#000000" d="M488.7645,-359.8314C490.3688,-352.131 492.2764,-342.9743 494.0593,-334.4166"/>
<polygon fill="#000000" stroke="#000000" points="497.5301,-334.9169 496.1433,-324.4133 490.6772,-333.4892 497.5301,-334.9169"/>
</g>
<!-- [root] output.Private&#45;Subnet -->
<g id="node12" class="node">
<title>[root] output.Private-Subnet</title>
<polygon fill="none" stroke="#000000" points="789.4634,-324 656.4953,-324 656.4953,-288 795.4634,-288 795.4634,-318 789.4634,-324"/>
<polyline fill="none" stroke="#000000" points="789.4634,-324 789.4634,-318 "/>
<polyline fill="none" stroke="#000000" points="795.4634,-318 789.4634,-318 "/>
<text text-anchor="middle" x="725.9794" y="-301.8" font-family="Times,serif" font-size="14.00" fill="#000000">output.Private-Subnet</text>
</g>
<!-- [root] output.Private&#45;Subnet&#45;&gt;[root] aws_subnet.private_subnet (expand) -->
<g id="edge25" class="edge">
<title>[root] output.Private-Subnet-&gt;[root] aws_subnet.private_subnet (expand)</title>
<path fill="none" stroke="#000000" d="M689.8945,-287.8314C671.1805,-278.4089 648.1362,-266.8062 628.2394,-256.7883"/>
<polygon fill="#000000" stroke="#000000" points="629.5585,-253.5339 619.0528,-252.1628 626.4105,-259.7861 629.5585,-253.5339"/>
</g>
<!-- [root] output.Public&#45;Subnet -->
<g id="node13" class="node">
<title>[root] output.Public-Subnet</title>
<polygon fill="none" stroke="#000000" points="1159.088,-396 1030.8708,-396 1030.8708,-360 1165.088,-360 1165.088,-390 1159.088,-396"/>
<polyline fill="none" stroke="#000000" points="1159.088,-396 1159.088,-390 "/>
<polyline fill="none" stroke="#000000" points="1165.088,-390 1159.088,-390 "/>
<text text-anchor="middle" x="1097.9794" y="-373.8" font-family="Times,serif" font-size="14.00" fill="#000000">output.Public-Subnet</text>
</g>
<!-- [root] output.Public&#45;Subnet&#45;&gt;[root] aws_subnet.public_subnet (expand) -->
<g id="edge26" class="edge">
<title>[root] output.Public-Subnet-&gt;[root] aws_subnet.public_subnet (expand)</title>
<path fill="none" stroke="#000000" d="M1054.3242,-359.8314C1031.0836,-350.159 1002.3226,-338.1891 977.8271,-327.9944"/>
<polygon fill="#000000" stroke="#000000" points="978.8979,-324.6491 968.3207,-324.038 976.2082,-331.1117 978.8979,-324.6491"/>
</g>
<!-- [root] output.Route&#45;table&#45;private -->
<g id="node14" class="node">
<title>[root] output.Route-table-private</title>
<polygon fill="none" stroke="#000000" points="588.105,-468 429.8537,-468 429.8537,-432 594.105,-432 594.105,-462 588.105,-468"/>
<polyline fill="none" stroke="#000000" points="588.105,-468 588.105,-462 "/>
<polyline fill="none" stroke="#000000" points="594.105,-462 588.105,-462 "/>
<text text-anchor="middle" x="511.9794" y="-445.8" font-family="Times,serif" font-size="14.00" fill="#000000">output.Route-table-private</text>
</g>
<!-- [root] output.Route&#45;table&#45;private&#45;&gt;[root] aws_route_table.route_table_private (expand) -->
<g id="edge27" class="edge">
<title>[root] output.Route-table-private-&gt;[root] aws_route_table.route_table_private (expand)</title>
<path fill="none" stroke="#000000" d="M553.8682,-431.8314C576.0697,-422.2018 603.5215,-410.295 626.9577,-400.1299"/>
<polygon fill="#000000" stroke="#000000" points="628.6103,-403.2282 636.3918,-396.038 625.8248,-396.8062 628.6103,-403.2282"/>
</g>
<!-- [root] output.Route&#45;table&#45;public -->
<g id="node15" class="node">
<title>[root] output.Route-table-public</title>
<polygon fill="none" stroke="#000000" points="368.23,-468 213.7288,-468 213.7288,-432 374.23,-432 374.23,-462 368.23,-468"/>
<polyline fill="none" stroke="#000000" points="368.23,-468 368.23,-462 "/>
<polyline fill="none" stroke="#000000" points="374.23,-462 368.23,-462 "/>
<text text-anchor="middle" x="293.9794" y="-445.8" font-family="Times,serif" font-size="14.00" fill="#000000">output.Route-table-public</text>
</g>
<!-- [root] output.Route&#45;table&#45;public&#45;&gt;[root] aws_route_table.route_table_public (expand) -->
<g id="edge28" class="edge">
<title>[root] output.Route-table-public-&gt;[root] aws_route_table.route_table_public (expand)</title>
<path fill="none" stroke="#000000" d="M293.9794,-431.8314C293.9794,-424.131 293.9794,-414.9743 293.9794,-406.4166"/>
<polygon fill="#000000" stroke="#000000" points="297.4795,-406.4132 293.9794,-396.4133 290.4795,-406.4133 297.4795,-406.4132"/>
</g>
<!-- [root] output.VPC -->
<g id="node16" class="node">
<title>[root] output.VPC</title>
<polygon fill="none" stroke="#000000" points="120.9879,-252 44.9709,-252 44.9709,-216 126.9879,-216 126.9879,-246 120.9879,-252"/>
<polyline fill="none" stroke="#000000" points="120.9879,-252 120.9879,-246 "/>
<polyline fill="none" stroke="#000000" points="126.9879,-246 120.9879,-246 "/>
<text text-anchor="middle" x="85.9794" y="-229.8" font-family="Times,serif" font-size="14.00" fill="#000000">output.VPC</text>
</g>
<!-- [root] output.VPC&#45;&gt;[root] aws_vpc.myVpc (expand) -->
<g id="edge29" class="edge">
<title>[root] output.VPC-&gt;[root] aws_vpc.myVpc (expand)</title>
<path fill="none" stroke="#000000" d="M126.9898,-226.8331C198.7447,-214.2934 347.5753,-188.2842 433.3197,-173.2998"/>
<polygon fill="#000000" stroke="#000000" points="433.951,-176.7426 443.1991,-171.5732 432.7459,-169.8471 433.951,-176.7426"/>
</g>
<!-- [root] var.region -->
<g id="node19" class="node">
<title>[root] var.region</title>
<polygon fill="none" stroke="#000000" points="528.6205,-36 461.3383,-36 461.3383,0 534.6205,0 534.6205,-30 528.6205,-36"/>
<polyline fill="none" stroke="#000000" points="528.6205,-36 528.6205,-30 "/>
<polyline fill="none" stroke="#000000" points="534.6205,-30 528.6205,-30 "/>
<text text-anchor="middle" x="497.9794" y="-13.8" font-family="Times,serif" font-size="14.00" fill="#000000">var.region</text>
</g>
<!-- [root] provider[&quot;registry.terraform.io/hashicorp/aws&quot;]&#45;&gt;[root] var.region -->
<g id="edge32" class="edge">
<title>[root] provider["registry.terraform.io/hashicorp/aws"]-&gt;[root] var.region</title>
<path fill="none" stroke="#000000" d="M497.9794,-71.8314C497.9794,-64.131 497.9794,-54.9743 497.9794,-46.4166"/>
<polygon fill="#000000" stroke="#000000" points="501.4795,-46.4132 497.9794,-36.4133 494.4795,-46.4133 501.4795,-46.4132"/>
</g>
<!-- [root] meta.count&#45;boundary (EachMode fixup) -->
<g id="node20" class="node">
<title>[root] meta.count-boundary (EachMode fixup)</title>
<ellipse fill="none" stroke="#000000" cx="511.9794" cy="-522" rx="191.4666" ry="18"/>
<text text-anchor="middle" x="511.9794" y="-517.8" font-family="Times,serif" font-size="14.00" fill="#000000">[root] meta.count-boundary (EachMode fixup)</text>
</g>
<!-- [root] meta.count&#45;boundary (EachMode fixup)&#45;&gt;[root] aws_route_table_association.private_route (expand) -->
<g id="edge14" class="edge">
<title>[root] meta.count-boundary (EachMode fixup)-&gt;[root] aws_route_table_association.private_route (expand)</title>
<path fill="none" stroke="#000000" d="M575.0177,-504.937C612.913,-494.6796 661.4016,-481.5549 701.4813,-470.7063"/>
<polygon fill="#000000" stroke="#000000" points="702.4749,-474.0633 711.2131,-468.0721 700.646,-467.3065 702.4749,-474.0633"/>
</g>
<!-- [root] meta.count&#45;boundary (EachMode fixup)&#45;&gt;[root] aws_route_table_association.route (expand) -->
<g id="edge15" class="edge">
<title>[root] meta.count-boundary (EachMode fixup)-&gt;[root] aws_route_table_association.route (expand)</title>
<path fill="none" stroke="#000000" d="M625.8637,-507.5043C704.1101,-497.364 810.6446,-483.2033 913.4019,-468.2157"/>
<polygon fill="#000000" stroke="#000000" points="913.9452,-471.6735 923.3333,-466.7628 912.9319,-464.7472 913.9452,-471.6735"/>
</g>
<!-- [root] meta.count&#45;boundary (EachMode fixup)&#45;&gt;[root] output.Internet&#45;gateway -->
<g id="edge16" class="edge">
<title>[root] meta.count-boundary (EachMode fixup)-&gt;[root] output.Internet-gateway</title>
<path fill="none" stroke="#000000" d="M395.7381,-507.652C323.6684,-497.5863 238.6205,-483.2463 204.9794,-468 170.7821,-452.5017 138.0806,-424.116 116.9375,-403.3549"/>
<polygon fill="#000000" stroke="#000000" points="119.2298,-400.697 109.6895,-396.089 114.2739,-405.6407 119.2298,-400.697"/>
</g>
<!-- [root] meta.count&#45;boundary (EachMode fixup)&#45;&gt;[root] output.Nat&#45;Gateway -->
<g id="edge17" class="edge">
<title>[root] meta.count-boundary (EachMode fixup)-&gt;[root] output.Nat-Gateway</title>
<path fill="none" stroke="#000000" d="M462.8727,-504.5645C446.5811,-496.1637 430.2513,-484.2835 420.9794,-468 413.0624,-454.096 414.2372,-446.5101 420.9794,-432 426.3932,-420.3486 435.6963,-410.3063 445.5581,-402.1507"/>
<polygon fill="#000000" stroke="#000000" points="447.7337,-404.8929 453.5233,-396.0198 443.4641,-399.3458 447.7337,-404.8929"/>
</g>
<!-- [root] meta.count&#45;boundary (EachMode fixup)&#45;&gt;[root] output.Private&#45;Subnet -->
<g id="edge18" class="edge">
<title>[root] meta.count-boundary (EachMode fixup)-&gt;[root] output.Private-Subnet</title>
<path fill="none" stroke="#000000" d="M545.977,-504.2072C563.5907,-494.4068 585.0962,-481.5095 602.9794,-468 621.5424,-453.9769 620.4808,-443.0019 640.9794,-432 703.6754,-398.35 752.6814,-451.6848 796.9794,-396 806.9402,-383.4787 804.0866,-374.3348 796.9794,-360 791.0042,-347.9485 780.9102,-337.8585 770.1801,-329.7863"/>
<polygon fill="#000000" stroke="#000000" points="772.1107,-326.8655 761.9085,-324.0077 768.1018,-332.6039 772.1107,-326.8655"/>
</g>
<!-- [root] meta.count&#45;boundary (EachMode fixup)&#45;&gt;[root] output.Public&#45;Subnet -->
<g id="edge19" class="edge">
<title>[root] meta.count-boundary (EachMode fixup)-&gt;[root] output.Public-Subnet</title>
<path fill="none" stroke="#000000" d="M650.0997,-509.5284C671.1617,-507.6563 692.6476,-505.7635 712.9794,-504 760.6347,-499.8667 1109.6006,-503.2097 1141.9794,-468 1159.1281,-449.3519 1142.5161,-422.7868 1125.011,-403.3519"/>
<polygon fill="#000000" stroke="#000000" points="1127.4877,-400.8771 1118.0696,-396.0244 1122.4059,-405.6912 1127.4877,-400.8771"/>
</g>
<!-- [root] meta.count&#45;boundary (EachMode fixup)&#45;&gt;[root] output.Route&#45;table&#45;private -->
<g id="edge20" class="edge">
<title>[root] meta.count-boundary (EachMode fixup)-&gt;[root] output.Route-table-private</title>
<path fill="none" stroke="#000000" d="M511.9794,-503.8314C511.9794,-496.131 511.9794,-486.9743 511.9794,-478.4166"/>
<polygon fill="#000000" stroke="#000000" points="515.4795,-478.4132 511.9794,-468.4133 508.4795,-478.4133 515.4795,-478.4132"/>
</g>
<!-- [root] meta.count&#45;boundary (EachMode fixup)&#45;&gt;[root] output.Route&#45;table&#45;public -->
<g id="edge21" class="edge">
<title>[root] meta.count-boundary (EachMode fixup)-&gt;[root] output.Route-table-public</title>
<path fill="none" stroke="#000000" d="M459.4855,-504.6626C429.1145,-494.6318 390.6536,-481.9291 358.4531,-471.2941"/>
<polygon fill="#000000" stroke="#000000" points="359.2699,-467.878 348.6768,-468.0652 357.0746,-474.5248 359.2699,-467.878"/>
</g>
<!-- [root] meta.count&#45;boundary (EachMode fixup)&#45;&gt;[root] output.VPC -->
<g id="edge22" class="edge">
<title>[root] meta.count-boundary (EachMode fixup)-&gt;[root] output.VPC</title>
<path fill="none" stroke="#000000" d="M359.3186,-511.0794C292.6259,-503.3644 214.2202,-490.2498 145.9794,-468 80.5821,-446.6773 44.5485,-454.8753 8.9794,-396 -18.8978,-349.8567 26.1428,-292.0368 58.228,-259.4352"/>
<polygon fill="#000000" stroke="#000000" points="60.9983,-261.6183 65.6507,-252.0996 56.0778,-256.6394 60.9983,-261.6183"/>
</g>
<!-- [root] provider[&quot;registry.terraform.io/hashicorp/aws&quot;] (close) -->
<g id="node21" class="node">
<title>[root] provider["registry.terraform.io/hashicorp/aws"] (close)</title>
<ellipse fill="none" stroke="#000000" cx="968.9794" cy="-522" rx="247.2168" ry="18"/>
<text text-anchor="middle" x="968.9794" y="-517.8" font-family="Times,serif" font-size="14.00" fill="#000000">[root] provider["registry.terraform.io/hashicorp/aws"] (close)</text>
</g>
<!-- [root] provider[&quot;registry.terraform.io/hashicorp/aws&quot;] (close)&#45;&gt;[root] aws_route_table_association.private_route (expand) -->
<g id="edge30" class="edge">
<title>[root] provider["registry.terraform.io/hashicorp/aws"] (close)-&gt;[root] aws_route_table_association.private_route (expand)</title>
<path fill="none" stroke="#000000" d="M921.7659,-504.2022C895.6777,-494.368 863.0657,-482.0744 835.4981,-471.6824"/>
<polygon fill="#000000" stroke="#000000" points="836.5682,-468.3455 825.9764,-468.0931 834.0991,-474.8956 836.5682,-468.3455"/>
</g>
<!-- [root] provider[&quot;registry.terraform.io/hashicorp/aws&quot;] (close)&#45;&gt;[root] aws_route_table_association.route (expand) -->
<g id="edge31" class="edge">
<title>[root] provider["registry.terraform.io/hashicorp/aws"] (close)-&gt;[root] aws_route_table_association.route (expand)</title>
<path fill="none" stroke="#000000" d="M983.8676,-503.8314C990.7324,-495.454 999.0095,-485.3531 1006.5305,-476.1749"/>
<polygon fill="#000000" stroke="#000000" points="1009.2597,-478.3665 1012.8907,-468.4133 1003.8453,-473.9297 1009.2597,-478.3665"/>
</g>
<!-- [root] root -->
<g id="node22" class="node">
<title>[root] root</title>
<ellipse fill="none" stroke="#000000" cx="739.9794" cy="-594" rx="50.9823" ry="18"/>
<text text-anchor="middle" x="739.9794" y="-589.8" font-family="Times,serif" font-size="14.00" fill="#000000">[root] root</text>
</g>
<!-- [root] root&#45;&gt;[root] meta.count&#45;boundary (EachMode fixup) -->
<g id="edge33" class="edge">
<title>[root] root-&gt;[root] meta.count-boundary (EachMode fixup)</title>
<path fill="none" stroke="#000000" d="M701.8173,-581.9488C667.7373,-571.1867 617.1086,-555.1987 576.7051,-542.4397"/>
<polygon fill="#000000" stroke="#000000" points="577.5243,-539.0281 566.9345,-539.3543 575.4164,-545.7032 577.5243,-539.0281"/>
</g>
<!-- [root] root&#45;&gt;[root] provider[&quot;registry.terraform.io/hashicorp/aws&quot;] (close) -->
<g id="edge34" class="edge">
<title>[root] root-&gt;[root] provider["registry.terraform.io/hashicorp/aws"] (close)</title>
<path fill="none" stroke="#000000" d="M778.3088,-581.9488C812.303,-571.2607 862.6909,-555.4182 903.1317,-542.7032"/>
<polygon fill="#000000" stroke="#000000" points="904.4275,-545.9648 912.9173,-539.6265 902.3279,-539.2871 904.4275,-545.9648"/>
</g>
</g>
</svg>